# xmcd
#
# Track frame offsets:
# 150
# 13001
# 25102
#
# Disc length: 494 seconds
#
#
# Revision: 0
# Processed by: cddbd v1.5.1PL0 Copyright (c) Steve Scherf et al.
# Submitted via: FreeRIP 2.941 
#
DISCID=1701ec03
DTITLE=The Sound Explosion - G. Raphael - M. Ellis E.P
DYEAR=2005
DGENRE=Rock
TTITLE0=Tonight
TTITLE1=Let It Turn Inside Itself
TTITLE2=Apollo
EXTD=
EXTT0=
EXTT1=
EXTT2=
PLAYORDER=
